<?xml version="1.0" encoding="UTF-8" standalone="no"?>
<!-- Created with Inkscape (http://www.inkscape.org/) -->

<svg
   xmlns:dc="http://purl.org/dc/elements/1.1/"
   xmlns:cc="http://creativecommons.org/ns#"
   xmlns:rdf="http://www.w3.org/1999/02/22-rdf-syntax-ns#"
   xmlns:svg="http://www.w3.org/2000/svg"
   xmlns="http://www.w3.org/2000/svg"
   xmlns:sodipodi="http://sodipodi.sourceforge.net/DTD/sodipodi-0.dtd"
   xmlns:inkscape="http://www.inkscape.org/namespaces/inkscape"
   version="1.1"
   id="svg154"
   width="19"
   height="19"
   viewBox="0 0 19 19"
   sodipodi:docname="icon.svg"
   inkscape:export-filename="C:\Users\crowlc3\Desktop\icon3.png"
   inkscape:export-xdpi="96"
   inkscape:export-ydpi="96"
   inkscape:version="0.92.4 (5da689c313, 2019-01-14)">
  <metadata
     id="metadata160">
    <rdf:RDF>
      <cc:Work
         rdf:about="">
        <dc:format>image/svg+xml</dc:format>
        <dc:type
           rdf:resource="http://purl.org/dc/dcmitype/StillImage" />
        <dc:title></dc:title>
      </cc:Work>
    </rdf:RDF>
  </metadata>
  <defs
     id="defs158" />
  <sodipodi:namedview
     pagecolor="#ffffff"
     bordercolor="#666666"
     borderopacity="1"
     objecttolerance="10"
     gridtolerance="10"
     guidetolerance="10"
     inkscape:pageopacity="0"
     inkscape:pageshadow="2"
     inkscape:window-width="1920"
     inkscape:window-height="1013"
     id="namedview156"
     showgrid="false"
     inkscape:pagecheckerboard="true"
     inkscape:zoom="21.605263"
     inkscape:cx="4.7735668"
     inkscape:cy="10.564366"
     inkscape:window-x="1911"
     inkscape:window-y="-9"
     inkscape:window-maximized="1"
     inkscape:current-layer="svg154" />
  <ellipse
     style="opacity:1;vector-effect:none;fill:none;fill-opacity:1;stroke-width:1;stroke-linecap:butt;stroke-linejoin:miter;stroke-miterlimit:4;stroke-dasharray:none;stroke-dashoffset:0;stroke-opacity:1"
     id="path5152"
     cx="5.4153471"
     cy="6.3179049"
     rx="4.3970766"
     ry="4.9987822" />
  <ellipse
     style="opacity:1;vector-effect:none;fill:none;fill-opacity:1;stroke-width:1;stroke-linecap:butt;stroke-linejoin:miter;stroke-miterlimit:4;stroke-dasharray:none;stroke-dashoffset:0;stroke-opacity:1"
     id="path5154"
     cx="10.830694"
     cy="11.177832"
     rx="8.0535936"
     ry="4.813642" />
  <ellipse
     style="opacity:1;vector-effect:none;fill:none;fill-opacity:1;stroke-width:1;stroke-linecap:butt;stroke-linejoin:miter;stroke-miterlimit:4;stroke-dasharray:none;stroke-dashoffset:0;stroke-opacity:1"
     id="path5156"
     cx="14.973204"
     cy="18.838003"
     rx="3.4019489"
     ry="3.5870888" />
  <ellipse
     style="opacity:1;vector-effect:none;fill:none;fill-opacity:1;stroke-width:1;stroke-linecap:butt;stroke-linejoin:miter;stroke-miterlimit:4;stroke-dasharray:none;stroke-dashoffset:0;stroke-opacity:1"
     id="path5158"
     cx="9.627284"
     cy="9.8355665"
     rx="9.1644335"
     ry="9.2570038" />
  <path
     sodipodi:type="star"
     style="opacity:1;vector-effect:none;fill:none;fill-opacity:1;stroke-width:1;stroke-linecap:butt;stroke-linejoin:miter;stroke-miterlimit:4;stroke-dasharray:none;stroke-dashoffset:0;stroke-opacity:1"
     id="path5166"
     sodipodi:sides="10"
     sodipodi:cx="8.5164433"
     sodipodi:cy="6.6419001"
     sodipodi:r1="7.9421639"
     sodipodi:r2="3.971082"
     sodipodi:arg1="0.85964162"
     sodipodi:arg2="1.1738009"
     inkscape:flatsided="false"
     inkscape:rounded="0"
     inkscape:randomized="0"
     d="M 13.700365,12.658953 10.051859,10.304139 9.1735896,14.556831 7.6060108,10.507208 4.3958063,13.431474 5.507917,9.233861 1.1919663,9.7127315 4.5589779,6.9704732 0.78582752,4.8210353 5.1216561,4.5815815 3.3325212,0.62484761 6.9810276,2.9796616 7.8592969,-1.2730306 9.4268757,2.7765922 12.63708,-0.14767426 11.52497,4.0499391 15.84092,3.5710687 12.473909,6.3133269 16.247059,8.4627648 11.91123,8.7022186 Z" />
  <path
     sodipodi:type="star"
     style="opacity:1;vector-effect:none;fill:none;fill-opacity:1;stroke-width:1;stroke-linecap:butt;stroke-linejoin:miter;stroke-miterlimit:4;stroke-dasharray:none;stroke-dashoffset:0;stroke-opacity:1"
     id="path5168"
     sodipodi:sides="10"
     sodipodi:cx="9.8124237"
     sodipodi:cy="9.7429962"
     sodipodi:r1="1.9772968"
     sodipodi:r2="0.98864841"
     sodipodi:arg1="0.56852455"
     sodipodi:arg2="0.88268381"
     inkscape:flatsided="false"
     inkscape:rounded="0"
     inkscape:randomized="0"
     d="m 11.478684,10.807552 -1.038389,-0.300878 0.09443,1.076969 L 9.8715037,10.729878 9.3148742,11.65667 9.280146,10.576127 8.2850685,10.998739 8.8921003,10.104148 7.8386606,9.8611562 8.8555868,9.4942215 8.1461631,8.6784408 9.1845525,8.9793186 9.0901205,7.9023494 9.7533437,8.7561146 10.309973,7.8293225 l 0.03473,1.0805434 0.995078,-0.422612 -0.607032,0.8945907 1.05344,0.2429916 -1.016926,0.3669348 z" />
  <path
     sodipodi:type="spiral"
     style="fill:#aa0000;fill-rule:evenodd;stroke:#000000"
     id="path5182"
     sodipodi:cx="9.2801456"
     sodipodi:cy="10.576126"
     sodipodi:expansion="1"
     sodipodi:revolution="3.5999999"
     sodipodi:radius="8.986515"
     sodipodi:argument="-21.969473"
     sodipodi:t0="0"
     d="M 9.2801456,10.576126 C 8.9047592,10.567988 9.1059131,10.066098 9.2936716,9.9522091 9.8024854,9.6435783 10.384589,10.116446 10.52798,10.603178 10.784471,11.473827 10.067871,12.290785 9.2395678,12.447877 8.0239991,12.678416 6.9445492,11.6904 6.7844778,10.522022 6.5711278,8.9647592 7.8395261,7.6154415 9.3477754,7.4565413 11.245753,7.2565816 12.867981,8.8091762 13.023647,10.657282 13.212181,12.895585 11.373433,14.79229 9.185464,14.943545 6.6070182,15.121794 4.4349157,12.995758 4.2888099,10.467919 4.120125,7.5494274 6.5341641,5.1013379 9.4018792,4.9608734 12.660359,4.8012687 15.384837,7.5037926 15.519315,10.711386 15.67018,14.30982 12.678832,17.310971 9.1313602,17.439213 5.1929939,17.581585 1.9149582,14.301166 1.7931421,10.413815 1.6590756,6.1355319 5.228752,2.5804514 9.455983,2.4652056 c 4.618189,-0.1259044 8.450438,3.7331737 8.559,8.3002834 0.04429,1.863428 -0.520036,3.717795 -1.580784,5.249108" />
</svg>
